<svg width="1437" height="790" viewBox="0 0 1437 790" fill="none" xmlns="http://www.w3.org/2000/svg">
<path opacity="0.2" d="M151.5 244.5V284L177.5 273V234L151.5 244.5Z" fill="#F7FA62"/>
<path opacity="0.2" d="M943 -95.24V28L1024 0.5V-128L943 -95.24Z" fill="#F7FA62"/>
<path opacity="0.1" d="M231 -30.24V123L120 85.5V-73L231 -30.24Z" fill="#8FD0FF"/>
<path opacity="0.2" d="M1108.5 171V243L1071 232.5V160.5L1108.5 171Z" fill="#3734A9" stroke="white"/>
<path opacity="0.2" d="M1 185V268L38.5 257.5V174.5L1 185Z" fill="#3734A9" stroke="white"/>
<path opacity="0.78" d="M893.177 834.739L1002.5 761L1026.57 849.307L912.582 926.193L893.177 834.739Z" fill="#F7FA62"/>
<path opacity="0.89" d="M911.012 795.683L823.333 743L877.524 697.128L968.945 752.06L911.012 795.683Z" fill="#F7FA62"/>
<path opacity="0.72" d="M307.038 639.222L388.167 672L348.52 718.008L263.928 683.831L307.038 639.222Z" fill="#8FD0FF"/>
<path opacity="0.4" d="M1431.33 483.886L1529.57 575.5L1447.44 619.628L1345 524.104L1431.33 483.886Z" fill="#8FD0FF"/>
<path opacity="0.1" d="M1018.62 546.945L982.929 608.762L959.515 584.817L995.205 523L1018.62 546.945Z" fill="#3734A9" stroke="white"/>
<path opacity="0.2" d="M91.5061 527.53L177.262 517L170.24 563.2L84.4841 573.73L91.5061 527.53Z" fill="#3734A9" stroke="white"/>
<path opacity="0.2" d="M1283.58 272.128L1339.93 328.47L1307.34 346.798L1251 290.456L1283.58 272.128Z" fill="#3734A9" stroke="white"/>
<path opacity="0.3" d="M639.943 468.364L576.333 456L592.049 424.673L655.659 437.038L639.943 468.364Z" fill="#3734A9" stroke="white"/>
<path opacity="0.2" d="M400.368 409.17L279 387.77L320.148 312.775L446.696 335.089L400.368 409.17Z" fill="#8FD0FF"/>
</svg>
